<svg xmlns="http://www.w3.org/2000/svg" viewBox="0 0 3385 1014" role="img" aria-label="eme">
  <g transform="translate(10.0 946.0) scale(1 -1)" fill="#E8A21A">
    <path transform="translate(0 0)" d="M850 545Q850 501 827.0 478.5Q804 456 761 456H203V521H561Q602 521 602 562Q602 686 558.0 750.0Q514 814 447 814Q393 814 351.5 780.0Q310 746 286.5 679.5Q263 613 263 514Q263 330 343.5 237.0Q424 144 554 144Q642 144 706.5 188.0Q771 232 793 302Q803 314 811.0 318.5Q819 323 827 323Q836 323 842.0 315.0Q848 307 848 291Q843 206 794.0 136.0Q745 66 660.5 23.0Q576 -20 467 -20Q337 -20 241.0 36.0Q145 92 91.5 193.0Q38 294 38 428Q38 565 90.5 671.0Q143 777 242.5 837.0Q342 897 479 897Q592 897 675.0 851.5Q758 806 804.0 726.0Q850 646 850 545Z"/>
    <path transform="translate(876 0)" d="M380 850V142Q380 114 387.0 100.0Q394 86 410 79L450 70Q471 58 471 35Q471 0 434 0H80Q61 0 50.5 9.5Q40 19 40 35Q40 50 47.0 59.0Q54 68 67 75L105 84Q122 89 128.5 101.5Q135 114 135 141V689Q135 712 129.5 721.5Q124 731 110 736L59 737Q45 743 39.5 751.0Q34 759 34 771Q34 784 42.0 794.0Q50 804 71 811L273 877Q300 887 314.5 890.5Q329 894 342 894Q361 894 370.5 881.5Q380 869 380 850ZM357 633 322 674 360 711Q461 813 546.5 855.5Q632 898 708 898Q812 898 876.0 830.0Q940 762 940 631V141Q940 112 947.0 98.5Q954 85 971 79L1004 70Q1026 58 1026 35Q1026 0 988 0H642Q606 0 606 35Q606 58 628 70L665 79Q684 86 690.5 101.0Q697 116 697 148V582Q697 662 660.0 703.5Q623 745 563 745Q520 745 477.0 725.5Q434 706 389 665ZM914 638 879 678 917 717Q1007 813 1082.0 855.5Q1157 898 1231 898Q1332 898 1387.5 835.0Q1443 772 1458 651L1523 143Q1526 113 1532.5 100.5Q1539 88 1555 82L1586 74Q1598 67 1605.5 58.5Q1613 50 1613 35Q1613 20 1602.0 10.0Q1591 0 1573 0H1220Q1183 0 1183 35Q1183 58 1206 70L1242 79Q1262 86 1270.0 101.0Q1278 116 1274 144L1219 582Q1209 662 1178.0 703.5Q1147 745 1089 745Q1054 745 1020.5 727.5Q987 710 945 670Z"/>
    <path transform="translate(2477 0)" d="M850 545Q850 501 827.0 478.5Q804 456 761 456H203V521H561Q602 521 602 562Q602 686 558.0 750.0Q514 814 447 814Q393 814 351.5 780.0Q310 746 286.5 679.5Q263 613 263 514Q263 330 343.5 237.0Q424 144 554 144Q642 144 706.5 188.0Q771 232 793 302Q803 314 811.0 318.5Q819 323 827 323Q836 323 842.0 315.0Q848 307 848 291Q843 206 794.0 136.0Q745 66 660.5 23.0Q576 -20 467 -20Q337 -20 241.0 36.0Q145 92 91.5 193.0Q38 294 38 428Q38 565 90.5 671.0Q143 777 242.5 837.0Q342 897 479 897Q592 897 675.0 851.5Q758 806 804.0 726.0Q850 646 850 545Z"/>
  </g>
</svg>
